<?xml version="1.0" encoding="UTF-8"?>
<svg id="a" data-name="图层 1" xmlns="http://www.w3.org/2000/svg" width="100mm" height="100mm" viewBox="0 0 283.46 283.46">
  <g id="b" data-name="&amp;lt;径向重复&amp;gt;">
    <polygon points="141.73 161.24 144.71 252.28 138.75 252.28 141.73 161.24" fill="#0088c0"/>
  </g>
  <g id="c" data-name="&amp;lt;径向重复&amp;gt;">
    <polygon points="138.68 161 127.38 251.39 121.5 250.46 138.68 161" fill="#0088c0"/>
  </g>
  <g id="d" data-name="&amp;lt;径向重复&amp;gt;">
    <polygon points="135.7 160.29 110.4 247.79 104.74 245.95 135.7 160.29" fill="#0088c0"/>
  </g>
  <g id="e" data-name="&amp;lt;径向重复&amp;gt;">
    <polygon points="132.87 159.12 94.2 241.59 88.89 238.88 132.87 159.12" fill="#0088c0"/>
  </g>
  <g id="f" data-name="&amp;lt;径向重复&amp;gt;">
    <polygon points="130.26 157.51 79.16 232.92 74.34 229.42 130.26 157.51" fill="#0088c0"/>
  </g>
  <g id="g" data-name="&amp;lt;径向重复&amp;gt;">
    <polygon points="127.94 155.53 65.67 222.01 61.45 217.8 127.94 155.53" fill="#0088c0"/>
  </g>
  <g id="h" data-name="&amp;lt;径向重复&amp;gt;">
    <polygon points="125.95 153.2 54.05 209.12 50.54 204.3 125.95 153.2" fill="#0088c0"/>
  </g>
  <g id="i" data-name="&amp;lt;径向重复&amp;gt;">
    <polygon points="124.35 150.59 44.58 194.58 41.88 189.27 124.35 150.59" fill="#0088c0"/>
  </g>
  <g id="j" data-name="&amp;lt;径向重复&amp;gt;">
    <polygon points="123.18 147.76 37.51 178.73 35.67 173.06 123.18 147.76" fill="#0088c0"/>
  </g>
  <g id="k" data-name="&amp;lt;径向重复&amp;gt;">
    <polygon points="122.46 144.78 33.01 161.97 32.08 156.08 122.46 144.78" fill="#0088c0"/>
  </g>
  <g id="l" data-name="&amp;lt;径向重复&amp;gt;">
    <polygon points="122.22 141.73 31.18 144.71 31.18 138.75 122.22 141.73" fill="#0088c0"/>
  </g>
  <g id="m" data-name="&amp;lt;径向重复&amp;gt;">
    <polygon points="122.46 138.68 32.08 127.38 33.01 121.5 122.46 138.68" fill="#0088c0"/>
  </g>
  <g id="n" data-name="&amp;lt;径向重复&amp;gt;">
    <polygon points="123.18 135.7 35.67 110.4 37.51 104.74 123.18 135.7" fill="#0088c0"/>
  </g>
  <g id="o" data-name="&amp;lt;径向重复&amp;gt;">
    <polygon points="124.35 132.87 41.88 94.2 44.58 88.89 124.35 132.87" fill="#0088c0"/>
  </g>
  <g id="p" data-name="&amp;lt;径向重复&amp;gt;">
    <polygon points="125.95 130.26 50.54 79.16 54.05 74.34 125.95 130.26" fill="#0088c0"/>
  </g>
  <g id="q" data-name="&amp;lt;径向重复&amp;gt;">
    <polygon points="127.94 127.94 61.45 65.67 65.67 61.45 127.94 127.94" fill="#0088c0"/>
  </g>
  <g id="r" data-name="&amp;lt;径向重复&amp;gt;">
    <polygon points="130.26 125.95 74.34 54.05 79.16 50.54 130.26 125.95" fill="#0088c0"/>
  </g>
  <g id="s" data-name="&amp;lt;径向重复&amp;gt;">
    <polygon points="132.87 124.35 88.89 44.58 94.2 41.88 132.87 124.35" fill="#0088c0"/>
  </g>
  <g id="t" data-name="&amp;lt;径向重复&amp;gt;">
    <polygon points="135.7 123.18 104.74 37.51 110.4 35.67 135.7 123.18" fill="#0088c0"/>
  </g>
  <g id="u" data-name="&amp;lt;径向重复&amp;gt;">
    <polygon points="138.68 122.46 121.5 33.01 127.38 32.08 138.68 122.46" fill="#0088c0"/>
  </g>
  <g id="v" data-name="&amp;lt;径向重复&amp;gt;">
    <polygon points="141.73 122.22 138.75 31.18 144.71 31.18 141.73 122.22" fill="#0088c0"/>
  </g>
  <g id="w" data-name="&amp;lt;径向重复&amp;gt;">
    <polygon points="144.78 122.46 156.08 32.08 161.97 33.01 144.78 122.46" fill="#0088c0"/>
  </g>
  <g id="x" data-name="&amp;lt;径向重复&amp;gt;">
    <polygon points="147.76 123.18 173.06 35.67 178.73 37.51 147.76 123.18" fill="#0088c0"/>
  </g>
  <g id="y" data-name="&amp;lt;径向重复&amp;gt;">
    <polygon points="150.59 124.35 189.27 41.88 194.58 44.58 150.59 124.35" fill="#0088c0"/>
  </g>
  <g id="z" data-name="&amp;lt;径向重复&amp;gt;">
    <polygon points="153.2 125.95 204.3 50.54 209.12 54.05 153.2 125.95" fill="#0088c0"/>
  </g>
  <g id="aa" data-name="&amp;lt;径向重复&amp;gt;">
    <polygon points="155.53 127.94 217.8 61.45 222.01 65.67 155.53 127.94" fill="#0088c0"/>
  </g>
  <g id="ab" data-name="&amp;lt;径向重复&amp;gt;">
    <polygon points="157.52 130.26 229.42 74.34 232.92 79.16 157.52 130.26" fill="#0088c0"/>
  </g>
  <g id="ac" data-name="&amp;lt;径向重复&amp;gt;">
    <polygon points="159.12 132.87 238.88 88.89 241.59 94.2 159.12 132.87" fill="#0088c0"/>
  </g>
  <g id="ad" data-name="&amp;lt;径向重复&amp;gt;">
    <polygon points="160.29 135.7 245.95 104.74 247.79 110.4 160.29 135.7" fill="#0088c0"/>
  </g>
  <g id="ae" data-name="&amp;lt;径向重复&amp;gt;">
    <polygon points="161 138.68 250.46 121.5 251.39 127.38 161 138.68" fill="#0088c0"/>
  </g>
  <g id="af" data-name="&amp;lt;径向重复&amp;gt;">
    <polygon points="161.24 141.73 252.28 138.75 252.28 144.71 161.24 141.73" fill="#0088c0"/>
  </g>
  <g id="ag" data-name="&amp;lt;径向重复&amp;gt;">
    <polygon points="161 144.78 251.39 156.08 250.46 161.97 161 144.78" fill="#0088c0"/>
  </g>
  <g id="ah" data-name="&amp;lt;径向重复&amp;gt;">
    <polygon points="160.29 147.76 247.79 173.06 245.95 178.73 160.29 147.76" fill="#0088c0"/>
  </g>
  <g id="ai" data-name="&amp;lt;径向重复&amp;gt;">
    <polygon points="159.12 150.59 241.59 189.27 238.88 194.58 159.12 150.59" fill="#0088c0"/>
  </g>
  <g id="aj" data-name="&amp;lt;径向重复&amp;gt;">
    <polygon points="157.51 153.2 232.92 204.3 229.42 209.12 157.51 153.2" fill="#0088c0"/>
  </g>
  <g id="ak" data-name="&amp;lt;径向重复&amp;gt;">
    <polygon points="155.53 155.53 222.01 217.8 217.8 222.01 155.53 155.53" fill="#0088c0"/>
  </g>
  <g id="al" data-name="&amp;lt;径向重复&amp;gt;">
    <polygon points="153.2 157.52 209.12 229.42 204.3 232.92 153.2 157.52" fill="#0088c0"/>
  </g>
  <g id="am" data-name="&amp;lt;径向重复&amp;gt;">
    <polygon points="150.59 159.12 194.58 238.88 189.27 241.59 150.59 159.12" fill="#0088c0"/>
  </g>
  <g id="an" data-name="&amp;lt;径向重复&amp;gt;">
    <polygon points="147.76 160.29 178.73 245.95 173.06 247.79 147.76 160.29" fill="#0088c0"/>
  </g>
  <g id="ao" data-name="&amp;lt;径向重复&amp;gt;">
    <polygon points="144.78 161 161.97 250.46 156.08 251.39 144.78 161" fill="#0088c0"/>
  </g>
</svg>