<?xml version="1.0" encoding="UTF-8"?>
<svg id="a" data-name="图层 1" xmlns="http://www.w3.org/2000/svg" width="100mm" height="100mm" viewBox="0 0 283.46 283.46">
  <g id="b" data-name="&amp;lt;径向重复&amp;gt;">
    <path d="M150.61,249.51l-.89-37.23c-.03-1.09-.97-1.94-2.06-1.84l-.93.08c-1.09.1-1.87,1.09-1.71,2.17l5.59,36.82Z" fill="#46bed6"/>
  </g>
  <g id="c" data-name="&amp;lt;径向重复&amp;gt;">
    <path d="M133.64,249.57l4.95-36.91c.15-1.08-.66-2.07-1.75-2.14l-.93-.07c-1.09-.08-2.02.78-2.03,1.88l-.24,37.24Z" fill="#46bed6"/>
  </g>
  <g id="d" data-name="&amp;lt;径向重复&amp;gt;">
    <path d="M116.87,246.98l10.66-35.68c.31-1.05-.32-2.14-1.39-2.39l-.91-.21c-1.07-.25-2.12.46-2.3,1.54l-6.06,36.75Z" fill="#46bed6"/>
  </g>
  <g id="e" data-name="&amp;lt;径向重复&amp;gt;">
    <path d="M100.72,241.79l16.11-33.58c.47-.99.02-2.17-1-2.58l-.87-.35c-1.01-.41-2.17.12-2.51,1.16l-11.74,35.35Z" fill="#46bed6"/>
  </g>
  <g id="f" data-name="&amp;lt;径向重复&amp;gt;">
    <path d="M85.57,234.14l21.17-30.64c.62-.9.35-2.14-.58-2.7l-.8-.48c-.94-.56-2.16-.22-2.66.75l-17.12,33.07Z" fill="#46bed6"/>
  </g>
  <g id="g" data-name="&amp;lt;径向重复&amp;gt;">
    <path d="M71.8,224.22l25.7-26.96c.76-.79.68-2.06-.15-2.76l-.72-.6c-.84-.7-2.1-.55-2.75.33l-22.08,29.99Z" fill="#46bed6"/>
  </g>
  <g id="h" data-name="&amp;lt;径向重复&amp;gt;">
    <path d="M59.76,212.27l29.6-22.6c.87-.66,1-1.92.28-2.75l-.61-.7c-.72-.83-1.98-.87-2.76-.11l-26.5,26.17Z" fill="#46bed6"/>
  </g>
  <g id="i" data-name="&amp;lt;径向重复&amp;gt;">
    <path d="M49.74,198.57l32.77-17.7c.96-.52,1.29-1.75.71-2.67l-.49-.79c-.58-.93-1.82-1.17-2.71-.54l-30.27,21.7Z" fill="#46bed6"/>
  </g>
  <g id="j" data-name="&amp;lt;径向重复&amp;gt;">
    <path d="M41.98,183.48l35.14-12.35c1.03-.36,1.54-1.52,1.12-2.53l-.36-.86c-.43-1.01-1.62-1.44-2.6-.95l-33.29,16.69Z" fill="#46bed6"/>
  </g>
  <g id="k" data-name="&amp;lt;径向重复&amp;gt;">
    <path d="M36.67,167.36l36.64-6.7c1.08-.2,1.76-1.26,1.5-2.32l-.23-.91c-.26-1.06-1.37-1.68-2.41-1.35l-35.49,11.28Z" fill="#46bed6"/>
  </g>
  <g id="l" data-name="&amp;lt;径向重复&amp;gt;">
    <path d="M33.96,150.61l37.23-.89c1.09-.03,1.94-.97,1.84-2.06l-.08-.93c-.1-1.09-1.09-1.87-2.17-1.71l-36.82,5.59Z" fill="#46bed6"/>
  </g>
  <g id="m" data-name="&amp;lt;径向重复&amp;gt;">
    <path d="M33.89,133.64l36.91,4.95c1.08.15,2.07-.66,2.14-1.75l.07-.93c.08-1.09-.78-2.02-1.88-2.03l-37.24-.24Z" fill="#46bed6"/>
  </g>
  <g id="n" data-name="&amp;lt;径向重复&amp;gt;">
    <path d="M36.49,116.87l35.68,10.66c1.05.31,2.14-.32,2.39-1.39l.21-.91c.25-1.07-.46-2.12-1.54-2.3l-36.75-6.06Z" fill="#46bed6"/>
  </g>
  <g id="o" data-name="&amp;lt;径向重复&amp;gt;">
    <path d="M41.67,100.72l33.58,16.11c.99.47,2.17.02,2.58-1l.35-.87c.41-1.01-.12-2.17-1.16-2.51l-35.35-11.74Z" fill="#46bed6"/>
  </g>
  <g id="p" data-name="&amp;lt;径向重复&amp;gt;">
    <path d="M49.32,85.57l30.64,21.17c.9.62,2.14.35,2.7-.58l.48-.8c.56-.94.22-2.16-.75-2.66l-33.07-17.12Z" fill="#46bed6"/>
  </g>
  <g id="q" data-name="&amp;lt;径向重复&amp;gt;">
    <path d="M59.24,71.8l26.96,25.7c.79.76,2.06.68,2.76-.15l.6-.72c.7-.84.55-2.1-.33-2.75l-29.99-22.08Z" fill="#46bed6"/>
  </g>
  <g id="r" data-name="&amp;lt;径向重复&amp;gt;">
    <path d="M71.2,59.76l22.6,29.6c.66.87,1.92,1,2.75.28l.7-.61c.83-.72.87-1.98.11-2.76l-26.17-26.5Z" fill="#46bed6"/>
  </g>
  <g id="s" data-name="&amp;lt;径向重复&amp;gt;">
    <path d="M84.89,49.74l17.7,32.77c.52.96,1.75,1.29,2.67.71l.79-.49c.93-.58,1.17-1.82.54-2.71l-21.7-30.27Z" fill="#46bed6"/>
  </g>
  <g id="t" data-name="&amp;lt;径向重复&amp;gt;">
    <path d="M99.98,41.98l12.35,35.14c.36,1.03,1.52,1.54,2.53,1.12l.86-.36c1.01-.43,1.44-1.62.95-2.6l-16.69-33.29Z" fill="#46bed6"/>
  </g>
  <g id="u" data-name="&amp;lt;径向重复&amp;gt;">
    <path d="M116.1,36.67l6.7,36.64c.2,1.08,1.26,1.76,2.32,1.5l.91-.23c1.06-.26,1.68-1.37,1.35-2.41l-11.28-35.49Z" fill="#46bed6"/>
  </g>
  <g id="v" data-name="&amp;lt;径向重复&amp;gt;">
    <path d="M132.85,33.96l.89,37.23c.03,1.09.97,1.94,2.06,1.84l.93-.08c1.09-.1,1.87-1.09,1.71-2.17l-5.59-36.82Z" fill="#46bed6"/>
  </g>
  <g id="w" data-name="&amp;lt;径向重复&amp;gt;">
    <path d="M149.82,33.89l-4.95,36.91c-.15,1.08.66,2.07,1.75,2.14l.93.07c1.09.08,2.02-.78,2.03-1.88l.24-37.24Z" fill="#46bed6"/>
  </g>
  <g id="x" data-name="&amp;lt;径向重复&amp;gt;">
    <path d="M166.59,36.49l-10.66,35.68c-.31,1.05.32,2.14,1.39,2.39l.91.21c1.07.25,2.12-.46,2.3-1.54l6.06-36.75Z" fill="#46bed6"/>
  </g>
  <g id="y" data-name="&amp;lt;径向重复&amp;gt;">
    <path d="M182.75,41.67l-16.11,33.58c-.47.99-.02,2.17,1,2.58l.87.35c1.01.41,2.17-.12,2.51-1.16l11.74-35.35Z" fill="#46bed6"/>
  </g>
  <g id="z" data-name="&amp;lt;径向重复&amp;gt;">
    <path d="M197.89,49.32l-21.17,30.64c-.62.9-.35,2.14.58,2.7l.8.48c.94.56,2.16.22,2.66-.75l17.12-33.07Z" fill="#46bed6"/>
  </g>
  <g id="aa" data-name="&amp;lt;径向重复&amp;gt;">
    <path d="M211.66,59.24l-25.7,26.96c-.76.79-.68,2.06.15,2.76l.72.6c.84.7,2.1.55,2.75-.33l22.08-29.99Z" fill="#46bed6"/>
  </g>
  <g id="ab" data-name="&amp;lt;径向重复&amp;gt;">
    <path d="M223.7,71.2l-29.6,22.6c-.87.66-1,1.92-.28,2.75l.61.7c.72.83,1.98.87,2.76.11l26.5-26.17Z" fill="#46bed6"/>
  </g>
  <g id="ac" data-name="&amp;lt;径向重复&amp;gt;">
    <path d="M233.73,84.89l-32.77,17.7c-.96.52-1.29,1.75-.71,2.67l.49.79c.58.93,1.82,1.17,2.71.54l30.27-21.7Z" fill="#46bed6"/>
  </g>
  <g id="ad" data-name="&amp;lt;径向重复&amp;gt;">
    <path d="M241.49,99.98l-35.14,12.35c-1.03.36-1.54,1.52-1.12,2.53l.36.86c.43,1.01,1.62,1.44,2.6.95l33.29-16.69Z" fill="#46bed6"/>
  </g>
  <g id="ae" data-name="&amp;lt;径向重复&amp;gt;">
    <path d="M246.79,116.1l-36.64,6.7c-1.08.2-1.76,1.26-1.5,2.32l.23.91c.26,1.06,1.37,1.68,2.41,1.35l35.49-11.28Z" fill="#46bed6"/>
  </g>
  <g id="af" data-name="&amp;lt;径向重复&amp;gt;">
    <path d="M249.51,132.85l-37.23.89c-1.09.03-1.94.97-1.84,2.06l.08.93c.1,1.09,1.09,1.87,2.17,1.71l36.82-5.59Z" fill="#46bed6"/>
  </g>
  <g id="ag" data-name="&amp;lt;径向重复&amp;gt;">
    <path d="M249.57,149.82l-36.91-4.95c-1.08-.15-2.07.66-2.14,1.75l-.07.93c-.08,1.09.78,2.02,1.88,2.03l37.24.24Z" fill="#46bed6"/>
  </g>
  <g id="ah" data-name="&amp;lt;径向重复&amp;gt;">
    <path d="M246.98,166.59l-35.68-10.66c-1.05-.31-2.14.32-2.39,1.39l-.21.91c-.25,1.07.46,2.12,1.54,2.3l36.75,6.06Z" fill="#46bed6"/>
  </g>
  <g id="ai" data-name="&amp;lt;径向重复&amp;gt;">
    <path d="M241.79,182.75l-33.58-16.11c-.99-.47-2.17-.02-2.58,1l-.35.87c-.41,1.01.12,2.17,1.16,2.51l35.35,11.74Z" fill="#46bed6"/>
  </g>
  <g id="aj" data-name="&amp;lt;径向重复&amp;gt;">
    <path d="M234.14,197.89l-30.64-21.17c-.9-.62-2.14-.35-2.7.58l-.48.8c-.56.94-.22,2.16.75,2.66l33.07,17.12Z" fill="#46bed6"/>
  </g>
  <g id="ak" data-name="&amp;lt;径向重复&amp;gt;">
    <path d="M224.22,211.66l-26.96-25.7c-.79-.76-2.06-.68-2.76.15l-.6.72c-.7.84-.55,2.1.33,2.75l29.99,22.08Z" fill="#46bed6"/>
  </g>
  <g id="al" data-name="&amp;lt;径向重复&amp;gt;">
    <path d="M212.27,223.7l-22.6-29.6c-.66-.87-1.92-1-2.75-.28l-.7.61c-.83.72-.87,1.98-.11,2.76l26.17,26.5Z" fill="#46bed6"/>
  </g>
  <g id="am" data-name="&amp;lt;径向重复&amp;gt;">
    <path d="M198.57,233.73l-17.7-32.77c-.52-.96-1.75-1.29-2.67-.71l-.79.49c-.93.58-1.17,1.82-.54,2.71l21.7,30.27Z" fill="#46bed6"/>
  </g>
  <g id="an" data-name="&amp;lt;径向重复&amp;gt;">
    <path d="M183.48,241.49l-12.35-35.14c-.36-1.03-1.52-1.54-2.53-1.12l-.86.36c-1.01.43-1.44,1.62-.95,2.6l16.69,33.29Z" fill="#46bed6"/>
  </g>
  <g id="ao" data-name="&amp;lt;径向重复&amp;gt;">
    <path d="M167.36,246.79l-6.7-36.64c-.2-1.08-1.26-1.76-2.32-1.5l-.91.23c-1.06.26-1.68,1.37-1.35,2.41l11.28,35.49Z" fill="#46bed6"/>
  </g>
</svg>