<?xml version="1.0" encoding="UTF-8"?>
<svg id="a" data-name="图层 1" xmlns="http://www.w3.org/2000/svg" width="100mm" height="100mm" viewBox="0 0 283.46 283.46">
  <polygon points="142.22 145.67 148.67 203.41 144.88 203.71 142.22 145.67" fill="#a1d8ea"/>
  <polygon points="141.6 145.7 138.94 203.73 135.15 203.44 141.6 145.7" fill="#a1d8ea"/>
  <polygon points="140.98 145.63 129.27 202.53 125.58 201.65 140.98 145.63" fill="#a1d8ea"/>
  <polygon points="140.38 145.46 119.92 199.83 116.4 198.38 140.38 145.46" fill="#a1d8ea"/>
  <polygon points="139.81 145.21 111.1 195.71 107.85 193.72 139.81 145.21" fill="#a1d8ea"/>
  <polygon points="139.29 144.86 103.03 190.25 100.14 187.78 139.29 144.86" fill="#a1d8ea"/>
  <polygon points="138.83 144.44 95.92 183.6 93.45 180.71 138.83 144.44" fill="#a1d8ea"/>
  <polygon points="138.44 143.96 89.93 175.91 87.94 172.67 138.44 143.96" fill="#a1d8ea"/>
  <polygon points="138.14 143.41 85.22 167.39 83.77 163.88 138.14 143.41" fill="#a1d8ea"/>
  <polygon points="137.92 142.83 81.9 158.24 81.01 154.54 137.92 142.83" fill="#a1d8ea"/>
  <polygon points="137.79 142.22 80.06 148.67 79.76 144.88 137.79 142.22" fill="#a1d8ea"/>
  <polygon points="137.76 141.6 79.73 138.94 80.03 135.15 137.76 141.6" fill="#a1d8ea"/>
  <polygon points="137.83 140.98 80.93 129.27 81.82 125.58 137.83 140.98" fill="#a1d8ea"/>
  <polygon points="138 140.38 83.63 119.92 85.08 116.4 138 140.38" fill="#a1d8ea"/>
  <polygon points="138.26 139.81 87.76 111.1 89.74 107.85 138.26 139.81" fill="#a1d8ea"/>
  <polygon points="138.6 139.29 93.21 103.03 95.68 100.14 138.6 139.29" fill="#a1d8ea"/>
  <polygon points="139.02 138.83 99.87 95.92 102.76 93.45 139.02 138.83" fill="#a1d8ea"/>
  <polygon points="139.51 138.44 107.55 89.93 110.79 87.94 139.51 138.44" fill="#a1d8ea"/>
  <polygon points="140.05 138.14 116.07 85.22 119.58 83.77 140.05 138.14" fill="#a1d8ea"/>
  <polygon points="140.63 137.92 125.23 81.9 128.93 81.01 140.63 137.92" fill="#a1d8ea"/>
  <polygon points="141.24 137.79 134.79 80.06 138.58 79.76 141.24 137.79" fill="#a1d8ea"/>
  <polygon points="141.86 137.76 144.53 79.73 148.31 80.03 141.86 137.76" fill="#a1d8ea"/>
  <polygon points="142.48 137.83 154.19 80.93 157.89 81.82 142.48 137.83" fill="#a1d8ea"/>
  <polygon points="143.09 138 163.55 83.63 167.06 85.08 143.09 138" fill="#a1d8ea"/>
  <polygon points="143.65 138.26 172.37 87.76 175.61 89.74 143.65 138.26" fill="#a1d8ea"/>
  <polygon points="144.17 138.6 180.44 93.21 183.33 95.68 144.17 138.6" fill="#a1d8ea"/>
  <polygon points="144.63 139.02 187.55 99.87 190.02 102.76 144.63 139.02" fill="#a1d8ea"/>
  <polygon points="145.02 139.51 193.54 107.55 195.52 110.79 145.02 139.51" fill="#a1d8ea"/>
  <polygon points="145.33 140.05 198.24 116.07 199.7 119.58 145.33 140.05" fill="#a1d8ea"/>
  <polygon points="145.55 140.63 201.56 125.23 202.45 128.93 145.55 140.63" fill="#a1d8ea"/>
  <polygon points="145.67 141.24 203.41 134.79 203.71 138.58 145.67 141.24" fill="#a1d8ea"/>
  <polygon points="145.7 141.86 203.73 144.53 203.44 148.31 145.7 141.86" fill="#a1d8ea"/>
  <polygon points="145.63 142.48 202.53 154.19 201.65 157.89 145.63 142.48" fill="#a1d8ea"/>
  <polygon points="145.46 143.09 199.83 163.55 198.38 167.06 145.46 143.09" fill="#a1d8ea"/>
  <polygon points="145.21 143.65 195.71 172.37 193.72 175.61 145.21 143.65" fill="#a1d8ea"/>
  <polygon points="144.86 144.17 190.25 180.44 187.78 183.33 144.86 144.17" fill="#a1d8ea"/>
  <polygon points="144.44 144.63 183.6 187.55 180.71 190.02 144.44 144.63" fill="#a1d8ea"/>
  <polygon points="143.96 145.02 175.91 193.54 172.67 195.52 143.96 145.02" fill="#a1d8ea"/>
  <polygon points="143.41 145.33 167.39 198.24 163.88 199.7 143.41 145.33" fill="#a1d8ea"/>
  <polygon points="142.83 145.55 158.24 201.56 154.54 202.45 142.83 145.55" fill="#a1d8ea"/>
</svg>