<?xml version="1.0" encoding="UTF-8"?>
<svg id="a" data-name="图层 1" xmlns="http://www.w3.org/2000/svg" width="100mm" height="100mm" viewBox="0 0 283.46 283.46">
  <polygon points="142.81 127.68 148.95 71.63 145.28 71.35 142.81 127.68" fill="#0088c0"/>
  <polygon points="144.99 128.02 159.83 73.62 156.24 72.77 144.99 128.02" fill="#0088c0"/>
  <polygon points="147.1 128.7 170.26 77.29 166.85 75.89 147.1 128.7" fill="#0088c0"/>
  <polygon points="149.07 129.7 179.99 82.55 176.84 80.63 149.07 129.7" fill="#0088c0"/>
  <polygon points="150.86 131 188.78 89.26 185.97 86.87 150.86 131" fill="#0088c0"/>
  <polygon points="152.43 132.56 196.41 97.27 194.01 94.47 152.43 132.56" fill="#0088c0"/>
  <polygon points="153.73 134.35 202.69 106.37 200.76 103.23 153.73 134.35" fill="#0088c0"/>
  <polygon points="154.74 136.31 207.47 116.34 206.05 112.94 154.74 136.31" fill="#0088c0"/>
  <polygon points="155.43 138.42 210.63 126.94 209.77 123.35 155.43 138.42" fill="#0088c0"/>
  <polygon points="155.78 140.6 212.1 137.9 211.8 134.22 155.78 140.6" fill="#0088c0"/>
  <polygon points="155.78 142.81 211.83 148.95 212.12 145.28 155.78 142.81" fill="#0088c0"/>
  <polygon points="155.44 144.99 209.84 159.83 210.69 156.24 155.44 144.99" fill="#0088c0"/>
  <polygon points="154.76 147.1 206.17 170.26 207.58 166.85 154.76 147.1" fill="#0088c0"/>
  <polygon points="153.76 149.07 200.91 179.99 202.84 176.84 153.76 149.07" fill="#0088c0"/>
  <polygon points="152.46 150.86 194.2 188.78 196.59 185.97 152.46 150.86" fill="#0088c0"/>
  <polygon points="150.9 152.43 186.19 196.41 188.99 194.01 150.9 152.43" fill="#0088c0"/>
  <polygon points="149.12 153.73 177.09 202.69 180.24 200.76 149.12 153.73" fill="#0088c0"/>
  <polygon points="147.15 154.74 167.12 207.47 170.53 206.05 147.15 154.74" fill="#0088c0"/>
  <polygon points="145.05 155.43 156.53 210.63 160.11 209.77 145.05 155.43" fill="#0088c0"/>
  <polygon points="142.87 155.78 145.57 212.1 149.24 211.8 142.87 155.78" fill="#0088c0"/>
  <polygon points="140.66 155.78 134.51 211.83 138.19 212.12 140.66 155.78" fill="#0088c0"/>
  <polygon points="138.47 155.44 123.63 209.84 127.22 210.69 138.47 155.44" fill="#0088c0"/>
  <polygon points="136.37 154.76 113.2 206.17 116.61 207.58 136.37 154.76" fill="#0088c0"/>
  <polygon points="134.4 153.76 103.47 200.91 106.62 202.84 134.4 153.76" fill="#0088c0"/>
  <polygon points="132.6 152.46 94.69 194.2 97.5 196.59 132.6 152.46" fill="#0088c0"/>
  <polygon points="131.04 150.9 87.06 186.19 89.46 188.99 131.04 150.9" fill="#0088c0"/>
  <polygon points="129.73 149.12 80.77 177.09 82.71 180.24 129.73 149.12" fill="#0088c0"/>
  <polygon points="128.73 147.15 75.99 167.12 77.41 170.53 128.73 147.15" fill="#0088c0"/>
  <polygon points="128.04 145.05 72.83 156.53 73.7 160.11 128.04 145.05" fill="#0088c0"/>
  <polygon points="127.69 142.87 71.36 145.57 71.66 149.24 127.69 142.87" fill="#0088c0"/>
  <polygon points="127.68 140.66 71.63 134.51 71.35 138.19 127.68 140.66" fill="#0088c0"/>
  <polygon points="128.03 138.47 73.62 123.63 72.77 127.22 128.03 138.47" fill="#0088c0"/>
  <polygon points="128.7 136.37 77.29 113.2 75.89 116.61 128.7 136.37" fill="#0088c0"/>
  <polygon points="129.7 134.39 82.55 103.47 80.63 106.62 129.7 134.39" fill="#0088c0"/>
  <polygon points="131 132.6 89.26 94.69 86.87 97.49 131 132.6" fill="#0088c0"/>
  <polygon points="132.56 131.04 97.27 87.06 94.47 89.46 132.56 131.04" fill="#0088c0"/>
  <polygon points="134.35 129.73 106.37 80.77 103.23 82.71 134.35 129.73" fill="#0088c0"/>
  <polygon points="136.31 128.73 116.34 75.99 112.94 77.41 136.31 128.73" fill="#0088c0"/>
  <polygon points="138.41 128.04 126.94 72.83 123.35 73.7 138.41 128.04" fill="#0088c0"/>
  <polygon points="140.6 127.69 137.9 71.36 134.22 71.66 140.6 127.69" fill="#0088c0"/>
</svg>