<?xml version="1.0" encoding="UTF-8"?>
<svg id="a" data-name="图层 1" xmlns="http://www.w3.org/2000/svg" width="100mm" height="100mm" viewBox="0 0 283.46 283.46">
  <polygon points="141.73 123.3 144.15 49.57 139.32 49.57 141.73 123.3" fill="#a1d8ea"/>
  <polygon points="144.62 123.53 158.53 51.08 153.77 50.33 144.62 123.53" fill="#a1d8ea"/>
  <polygon points="147.43 124.2 172.51 54.83 167.92 53.33 147.43 124.2" fill="#a1d8ea"/>
  <polygon points="150.1 125.31 185.72 60.71 181.42 58.52 150.1 125.31" fill="#a1d8ea"/>
  <polygon points="152.57 126.82 197.86 68.59 193.95 65.75 152.57 126.82" fill="#a1d8ea"/>
  <polygon points="154.77 128.7 208.61 78.27 205.2 74.86 154.77 128.7" fill="#a1d8ea"/>
  <polygon points="156.64 130.9 217.71 89.51 214.88 85.61 156.64 130.9" fill="#a1d8ea"/>
  <polygon points="158.16 133.37 224.95 102.04 222.75 97.74 158.16 133.37" fill="#a1d8ea"/>
  <polygon points="159.26 136.04 230.13 115.55 228.64 110.96 159.26 136.04" fill="#a1d8ea"/>
  <polygon points="159.94 138.85 233.14 129.7 232.38 124.93 159.94 138.85" fill="#a1d8ea"/>
  <polygon points="160.17 141.73 233.9 144.15 233.9 139.32 160.17 141.73" fill="#a1d8ea"/>
  <polygon points="159.94 144.62 232.38 158.53 233.14 153.77 159.94 144.62" fill="#a1d8ea"/>
  <polygon points="159.26 147.43 228.64 172.51 230.13 167.92 159.26 147.43" fill="#a1d8ea"/>
  <polygon points="158.16 150.1 222.76 185.72 224.95 181.42 158.16 150.1" fill="#a1d8ea"/>
  <polygon points="156.64 152.57 214.88 197.86 217.71 193.95 156.64 152.57" fill="#a1d8ea"/>
  <polygon points="154.77 154.77 205.2 208.61 208.61 205.2 154.77 154.77" fill="#a1d8ea"/>
  <polygon points="152.57 156.64 193.95 217.71 197.86 214.88 152.57 156.64" fill="#a1d8ea"/>
  <polygon points="150.1 158.16 181.42 224.95 185.72 222.76 150.1 158.16" fill="#a1d8ea"/>
  <polygon points="147.43 159.26 167.92 230.13 172.51 228.64 147.43 159.26" fill="#a1d8ea"/>
  <polygon points="144.62 159.94 153.77 233.14 158.53 232.38 144.62 159.94" fill="#a1d8ea"/>
  <polygon points="141.73 160.17 139.32 233.9 144.15 233.9 141.73 160.17" fill="#a1d8ea"/>
  <polygon points="138.85 159.94 124.93 232.38 129.7 233.14 138.85 159.94" fill="#a1d8ea"/>
  <polygon points="136.04 159.26 110.96 228.64 115.55 230.13 136.04 159.26" fill="#a1d8ea"/>
  <polygon points="133.36 158.16 97.74 222.76 102.04 224.95 133.36 158.16" fill="#a1d8ea"/>
  <polygon points="130.9 156.64 85.61 214.88 89.51 217.71 130.9 156.64" fill="#a1d8ea"/>
  <polygon points="128.7 154.77 74.86 205.2 78.27 208.61 128.7 154.77" fill="#a1d8ea"/>
  <polygon points="126.82 152.57 65.75 193.95 68.59 197.86 126.82 152.57" fill="#a1d8ea"/>
  <polygon points="125.31 150.1 58.52 181.42 60.71 185.72 125.31 150.1" fill="#a1d8ea"/>
  <polygon points="124.2 147.43 53.33 167.92 54.83 172.51 124.2 147.43" fill="#a1d8ea"/>
  <polygon points="123.53 144.62 50.33 153.77 51.08 158.53 123.53 144.62" fill="#a1d8ea"/>
  <polygon points="123.3 141.73 49.57 139.32 49.57 144.15 123.3 141.73" fill="#a1d8ea"/>
  <polygon points="123.53 138.85 51.08 124.93 50.33 129.7 123.53 138.85" fill="#a1d8ea"/>
  <polygon points="124.2 136.04 54.83 110.96 53.33 115.55 124.2 136.04" fill="#a1d8ea"/>
  <polygon points="125.31 133.36 60.71 97.74 58.52 102.04 125.31 133.36" fill="#a1d8ea"/>
  <polygon points="126.82 130.9 68.59 85.61 65.75 89.51 126.82 130.9" fill="#a1d8ea"/>
  <polygon points="128.7 128.7 78.27 74.86 74.86 78.27 128.7 128.7" fill="#a1d8ea"/>
  <polygon points="130.9 126.82 89.51 65.75 85.61 68.59 130.9 126.82" fill="#a1d8ea"/>
  <polygon points="133.37 125.31 102.04 58.52 97.74 60.71 133.37 125.31" fill="#a1d8ea"/>
  <polygon points="136.04 124.2 115.55 53.33 110.96 54.83 136.04 124.2" fill="#a1d8ea"/>
  <polygon points="138.85 123.53 129.7 50.33 124.93 51.08 138.85 123.53" fill="#a1d8ea"/>
</svg>