<?xml version="1.0" encoding="UTF-8"?>
<svg id="a" data-name="图层 1" xmlns="http://www.w3.org/2000/svg" width="100mm" height="100mm" viewBox="0 0 283.46 283.46">
  <path d="M147.24,70.23l5.2-36.82c.15-1.08-.64-2.07-1.73-2.15l-.93-.07c-1.09-.08-2.02.77-2.04,1.86l-.5,37.18Z" fill="#46bed6"/>
  <path d="M158.36,71.97l10.89-35.55c.32-1.04-.31-2.14-1.37-2.4l-.91-.22c-1.06-.25-2.12.44-2.3,1.52l-6.31,36.64Z" fill="#46bed6"/>
  <path d="M169.07,75.43l16.32-33.41c.48-.98.03-2.16-.98-2.58l-.86-.36c-1.01-.42-2.16.11-2.51,1.14l-11.96,35.2Z" fill="#46bed6"/>
  <path d="M179.1,80.52l21.34-30.44c.63-.89.37-2.13-.56-2.7l-.8-.49c-.93-.57-2.15-.23-2.66.73l-17.32,32.9Z" fill="#46bed6"/>
  <path d="M188.22,87.12l25.84-26.73c.76-.79.7-2.05-.13-2.76l-.71-.6c-.83-.71-2.09-.57-2.74.31l-22.26,29.78Z" fill="#46bed6"/>
  <path d="M196.19,95.06l29.71-22.36c.87-.66,1.01-1.91.3-2.74l-.61-.71c-.71-.83-1.97-.89-2.76-.12l-26.64,25.94Z" fill="#46bed6"/>
  <path d="M202.82,104.16l32.84-17.44c.97-.51,1.3-1.73.72-2.66l-.49-.79c-.57-.93-1.81-1.18-2.7-.55l-30.37,21.45Z" fill="#46bed6"/>
  <path d="M207.94,114.17l35.16-12.08c1.03-.36,1.55-1.51,1.13-2.52l-.36-.86c-.42-1.01-1.6-1.45-2.58-.97l-33.35,16.43Z" fill="#46bed6"/>
  <path d="M211.44,124.87l36.62-6.43c1.08-.19,1.77-1.25,1.51-2.31l-.22-.91c-.26-1.06-1.36-1.69-2.4-1.36l-35.51,11.01Z" fill="#46bed6"/>
  <path d="M213.22,135.98l37.18-.63c1.09-.02,1.94-.96,1.86-2.04l-.07-.93c-.09-1.09-1.08-1.88-2.16-1.72l-36.8,5.32Z" fill="#46bed6"/>
  <path d="M213.24,147.24l36.82,5.2c1.08.15,2.07-.64,2.15-1.73l.07-.93c.08-1.09-.77-2.02-1.86-2.04l-37.18-.5Z" fill="#46bed6"/>
  <path d="M211.5,158.36l35.55,10.89c1.04.32,2.14-.31,2.4-1.37l.22-.91c.25-1.06-.44-2.12-1.52-2.3l-36.64-6.31Z" fill="#46bed6"/>
  <path d="M208.04,169.07l33.41,16.32c.98.48,2.16.03,2.58-.98l.36-.86c.42-1.01-.11-2.16-1.14-2.51l-35.2-11.96Z" fill="#46bed6"/>
  <path d="M202.94,179.1l30.44,21.34c.89.63,2.13.37,2.7-.56l.49-.8c.57-.93.23-2.15-.73-2.66l-32.9-17.32Z" fill="#46bed6"/>
  <path d="M196.35,188.22l26.73,25.84c.79.76,2.05.7,2.76-.13l.6-.71c.71-.83.57-2.09-.31-2.74l-29.78-22.26Z" fill="#46bed6"/>
  <path d="M188.4,196.19l22.36,29.71c.66.87,1.91,1.01,2.74.3l.71-.61c.83-.71.89-1.97.12-2.76l-25.94-26.64Z" fill="#46bed6"/>
  <path d="M179.31,202.82l17.44,32.84c.51.97,1.73,1.3,2.66.72l.79-.49c.93-.57,1.18-1.81.55-2.7l-21.45-30.37Z" fill="#46bed6"/>
  <path d="M169.29,207.94l12.08,35.16c.36,1.03,1.51,1.55,2.52,1.13l.86-.36c1.01-.42,1.45-1.6.97-2.58l-16.43-33.35Z" fill="#46bed6"/>
  <path d="M158.59,211.44l6.43,36.62c.19,1.08,1.25,1.77,2.31,1.51l.91-.22c1.06-.26,1.69-1.36,1.36-2.4l-11.01-35.51Z" fill="#46bed6"/>
  <path d="M147.48,213.22l.63,37.18c.02,1.09.96,1.94,2.04,1.86l.93-.07c1.09-.09,1.88-1.08,1.72-2.16l-5.32-36.8Z" fill="#46bed6"/>
  <path d="M136.23,213.24l-5.2,36.82c-.15,1.08.64,2.07,1.73,2.15l.93.07c1.09.08,2.02-.77,2.04-1.86l.5-37.18Z" fill="#46bed6"/>
  <path d="M125.11,211.5l-10.89,35.55c-.32,1.04.31,2.14,1.37,2.4l.91.22c1.06.25,2.12-.44,2.3-1.52l6.31-36.64Z" fill="#46bed6"/>
  <path d="M114.4,208.04l-16.32,33.41c-.48.98-.03,2.16.98,2.58l.86.36c1.01.42,2.16-.11,2.51-1.14l11.96-35.2Z" fill="#46bed6"/>
  <path d="M104.37,202.94l-21.34,30.44c-.63.89-.37,2.13.56,2.7l.8.49c.93.57,2.15.23,2.66-.73l17.32-32.9Z" fill="#46bed6"/>
  <path d="M95.25,196.35l-25.84,26.73c-.76.79-.7,2.05.13,2.76l.71.6c.83.71,2.09.57,2.74-.31l22.26-29.78Z" fill="#46bed6"/>
  <path d="M87.28,188.4l-29.71,22.36c-.87.66-1.01,1.91-.3,2.74l.61.71c.71.83,1.97.89,2.76.12l26.64-25.94Z" fill="#46bed6"/>
  <path d="M80.65,179.31l-32.84,17.44c-.97.51-1.3,1.73-.72,2.66l.49.79c.57.93,1.81,1.18,2.7.55l30.37-21.45Z" fill="#46bed6"/>
  <path d="M75.52,169.29l-35.16,12.08c-1.03.36-1.55,1.51-1.13,2.52l.36.86c.42,1.01,1.6,1.45,2.58.97l33.35-16.43Z" fill="#46bed6"/>
  <path d="M72.03,158.59l-36.62,6.43c-1.08.19-1.77,1.25-1.51,2.31l.22.91c.26,1.06,1.36,1.69,2.4,1.36l35.51-11.01Z" fill="#46bed6"/>
  <path d="M70.25,147.48l-37.18.63c-1.09.02-1.94.96-1.86,2.04l.07.93c.09,1.09,1.08,1.88,2.16,1.72l36.8-5.32Z" fill="#46bed6"/>
  <path d="M70.23,136.23l-36.82-5.2c-1.08-.15-2.07.64-2.15,1.73l-.07.93c-.08,1.09.77,2.02,1.86,2.04l37.18.5Z" fill="#46bed6"/>
  <path d="M71.97,125.11l-35.55-10.89c-1.04-.32-2.14.31-2.4,1.37l-.22.91c-.25,1.06.44,2.12,1.52,2.3l36.64,6.31Z" fill="#46bed6"/>
  <path d="M75.43,114.4l-33.41-16.32c-.98-.48-2.16-.03-2.58.98l-.36.86c-.42,1.01.11,2.16,1.14,2.51l35.2,11.96Z" fill="#46bed6"/>
  <path d="M80.52,104.37l-30.44-21.34c-.89-.63-2.13-.37-2.7.56l-.49.8c-.57.93-.23,2.15.73,2.66l32.9,17.32Z" fill="#46bed6"/>
  <path d="M87.12,95.25l-26.73-25.84c-.79-.76-2.05-.7-2.76.13l-.6.71c-.71.83-.57,2.09.31,2.74l29.78,22.26Z" fill="#46bed6"/>
  <path d="M95.06,87.28l-22.36-29.71c-.66-.87-1.91-1.01-2.74-.3l-.71.61c-.83.71-.89,1.97-.12,2.76l25.94,26.64Z" fill="#46bed6"/>
  <path d="M104.16,80.65l-17.44-32.84c-.51-.97-1.73-1.3-2.66-.72l-.79.49c-.93.57-1.18,1.81-.55,2.7l21.45,30.37Z" fill="#46bed6"/>
  <path d="M114.17,75.52l-12.08-35.16c-.36-1.03-1.51-1.55-2.52-1.13l-.86.36c-1.01.42-1.45,1.6-.97,2.58l16.43,33.35Z" fill="#46bed6"/>
  <path d="M124.87,72.03l-6.43-36.62c-.19-1.08-1.25-1.77-2.31-1.51l-.91.22c-1.06.26-1.69,1.36-1.36,2.4l11.01,35.51Z" fill="#46bed6"/>
  <path d="M135.98,70.25l-.63-37.18c-.02-1.09-.96-1.94-2.04-1.86l-.93.07c-1.09.09-1.88,1.08-1.72,2.16l5.32,36.8Z" fill="#46bed6"/>
</svg>