<?xml version="1.0" encoding="UTF-8"?>
<svg id="a" data-name="图层 1" xmlns="http://www.w3.org/2000/svg" width="100mm" height="100mm" viewBox="0 0 283.46 283.46">
  <g id="b" data-name="&amp;lt;径向重复&amp;gt;">
    <path d="M141.73,154.28l.88,13.93c.03.41-.3.76-.71.76h-.35c-.41,0-.74-.35-.71-.76l.88-13.93Z" fill="#46bed6"/>
  </g>
  <g id="c" data-name="&amp;lt;径向重复&amp;gt;">
    <path d="M139.77,154.12l-1.31,13.9c-.04.41-.41.7-.82.64l-.35-.05c-.41-.06-.67-.46-.58-.86l3.05-13.62Z" fill="#46bed6"/>
  </g>
  <g id="d" data-name="&amp;lt;径向重复&amp;gt;">
    <path d="M137.86,153.66l-3.46,13.53c-.1.4-.52.63-.91.5l-.33-.11c-.39-.13-.59-.56-.44-.94l5.15-12.98Z" fill="#46bed6"/>
  </g>
  <g id="e" data-name="&amp;lt;径向重复&amp;gt;">
    <path d="M136.04,152.91l-5.54,12.82c-.16.38-.61.54-.98.35l-.31-.16c-.37-.19-.5-.64-.29-1l7.11-12.01Z" fill="#46bed6"/>
  </g>
  <g id="f" data-name="&amp;lt;径向重复&amp;gt;">
    <path d="M134.36,151.88l-7.47,11.79c-.22.35-.69.44-1.02.19l-.28-.21c-.33-.24-.39-.71-.13-1.03l8.91-10.75Z" fill="#46bed6"/>
  </g>
  <g id="g" data-name="&amp;lt;径向重复&amp;gt;">
    <path d="M132.86,150.6l-9.23,10.48c-.27.31-.75.32-1.04.03l-.25-.25c-.29-.29-.28-.76.03-1.04l10.48-9.23Z" fill="#46bed6"/>
  </g>
  <g id="h" data-name="&amp;lt;径向重复&amp;gt;">
    <path d="M131.58,149.11l-10.75,8.91c-.32.26-.79.2-1.03-.13l-.21-.28c-.24-.33-.15-.8.19-1.02l11.79-7.47Z" fill="#46bed6"/>
  </g>
  <g id="i" data-name="&amp;lt;径向重复&amp;gt;">
    <path d="M130.56,147.43l-12.01,7.11c-.35.21-.81.08-1-.29l-.16-.31c-.19-.37-.03-.81.35-.98l12.82-5.54Z" fill="#46bed6"/>
  </g>
  <g id="j" data-name="&amp;lt;径向重复&amp;gt;">
    <path d="M129.8,145.61l-12.98,5.15c-.38.15-.81-.05-.94-.44l-.11-.33c-.13-.39.1-.81.5-.91l13.53-3.46Z" fill="#46bed6"/>
  </g>
  <g id="k" data-name="&amp;lt;径向重复&amp;gt;">
    <path d="M129.34,143.7l-13.62,3.05c-.4.09-.79-.18-.86-.58l-.05-.35c-.06-.41.23-.78.64-.82l13.9-1.31Z" fill="#46bed6"/>
  </g>
  <g id="l" data-name="&amp;lt;径向重复&amp;gt;">
    <path d="M129.19,141.73l-13.93.88c-.41.03-.76-.3-.76-.71v-.35c0-.41.35-.74.76-.71l13.93.88Z" fill="#46bed6"/>
  </g>
  <g id="m" data-name="&amp;lt;径向重复&amp;gt;">
    <path d="M129.34,139.77l-13.9-1.31c-.41-.04-.7-.41-.64-.82l.05-.35c.06-.41.46-.67.86-.58l13.62,3.05Z" fill="#46bed6"/>
  </g>
  <g id="n" data-name="&amp;lt;径向重复&amp;gt;">
    <path d="M129.8,137.86l-13.53-3.46c-.4-.1-.63-.52-.5-.91l.11-.33c.13-.39.56-.59.94-.44l12.98,5.15Z" fill="#46bed6"/>
  </g>
  <g id="o" data-name="&amp;lt;径向重复&amp;gt;">
    <path d="M130.56,136.04l-12.82-5.54c-.38-.16-.54-.61-.35-.98l.16-.31c.19-.37.64-.5,1-.29l12.01,7.11Z" fill="#46bed6"/>
  </g>
  <g id="p" data-name="&amp;lt;径向重复&amp;gt;">
    <path d="M131.58,134.36l-11.79-7.47c-.35-.22-.44-.69-.19-1.02l.21-.28c.24-.33.71-.39,1.03-.13l10.75,8.91Z" fill="#46bed6"/>
  </g>
  <g id="q" data-name="&amp;lt;径向重复&amp;gt;">
    <path d="M132.86,132.86l-10.48-9.23c-.31-.27-.32-.75-.03-1.04l.25-.25c.29-.29.76-.28,1.04.03l9.23,10.48Z" fill="#46bed6"/>
  </g>
  <g id="r" data-name="&amp;lt;径向重复&amp;gt;">
    <path d="M134.36,131.58l-8.91-10.75c-.26-.32-.2-.79.13-1.03l.28-.21c.33-.24.8-.15,1.02.19l7.47,11.79Z" fill="#46bed6"/>
  </g>
  <g id="s" data-name="&amp;lt;径向重复&amp;gt;">
    <path d="M136.04,130.56l-7.11-12.01c-.21-.35-.08-.81.29-1l.31-.16c.37-.19.81-.03.98.35l5.54,12.82Z" fill="#46bed6"/>
  </g>
  <g id="t" data-name="&amp;lt;径向重复&amp;gt;">
    <path d="M137.86,129.8l-5.15-12.98c-.15-.38.05-.81.44-.94l.33-.11c.39-.13.81.1.91.5l3.46,13.53Z" fill="#46bed6"/>
  </g>
  <g id="u" data-name="&amp;lt;径向重复&amp;gt;">
    <path d="M139.77,129.34l-3.05-13.62c-.09-.4.18-.79.58-.86l.35-.05c.41-.06.78.23.82.64l1.31,13.9Z" fill="#46bed6"/>
  </g>
  <g id="v" data-name="&amp;lt;径向重复&amp;gt;">
    <path d="M141.73,129.19l-.88-13.93c-.03-.41.3-.76.71-.76h.35c.41,0,.74.35.71.76l-.88,13.93Z" fill="#46bed6"/>
  </g>
  <g id="w" data-name="&amp;lt;径向重复&amp;gt;">
    <path d="M143.7,129.34l1.31-13.9c.04-.41.41-.7.82-.64l.35.05c.41.06.67.46.58.86l-3.05,13.62Z" fill="#46bed6"/>
  </g>
  <g id="x" data-name="&amp;lt;径向重复&amp;gt;">
    <path d="M145.61,129.8l3.46-13.53c.1-.4.52-.63.91-.5l.33.11c.39.13.59.56.44.94l-5.15,12.98Z" fill="#46bed6"/>
  </g>
  <g id="y" data-name="&amp;lt;径向重复&amp;gt;">
    <path d="M147.43,130.56l5.54-12.82c.16-.38.61-.54.98-.35l.31.16c.37.19.5.64.29,1l-7.11,12.01Z" fill="#46bed6"/>
  </g>
  <g id="z" data-name="&amp;lt;径向重复&amp;gt;">
    <path d="M149.11,131.58l7.47-11.79c.22-.35.69-.44,1.02-.19l.28.21c.33.24.39.71.13,1.03l-8.91,10.75Z" fill="#46bed6"/>
  </g>
  <g id="aa" data-name="&amp;lt;径向重复&amp;gt;">
    <path d="M150.6,132.86l9.23-10.48c.27-.31.75-.32,1.04-.03l.25.25c.29.29.28.76-.03,1.04l-10.48,9.23Z" fill="#46bed6"/>
  </g>
  <g id="ab" data-name="&amp;lt;径向重复&amp;gt;">
    <path d="M151.88,134.36l10.75-8.91c.32-.26.79-.2,1.03.13l.21.28c.24.33.15.8-.19,1.02l-11.79,7.47Z" fill="#46bed6"/>
  </g>
  <g id="ac" data-name="&amp;lt;径向重复&amp;gt;">
    <path d="M152.91,136.04l12.01-7.11c.35-.21.81-.08,1,.29l.16.31c.19.37.03.81-.35.98l-12.82,5.54Z" fill="#46bed6"/>
  </g>
  <g id="ad" data-name="&amp;lt;径向重复&amp;gt;">
    <path d="M153.66,137.86l12.98-5.15c.38-.15.81.05.94.44l.11.33c.13.39-.1.81-.5.91l-13.53,3.46Z" fill="#46bed6"/>
  </g>
  <g id="ae" data-name="&amp;lt;径向重复&amp;gt;">
    <path d="M154.12,139.77l13.62-3.05c.4-.09.79.18.86.58l.05.35c.06.41-.23.78-.64.82l-13.9,1.31Z" fill="#46bed6"/>
  </g>
  <g id="af" data-name="&amp;lt;径向重复&amp;gt;">
    <path d="M154.28,141.73l13.93-.88c.41-.03.76.3.76.71v.35c0,.41-.35.74-.76.71l-13.93-.88Z" fill="#46bed6"/>
  </g>
  <g id="ag" data-name="&amp;lt;径向重复&amp;gt;">
    <path d="M154.12,143.7l13.9,1.31c.41.04.7.41.64.82l-.05.35c-.06.41-.46.67-.86.58l-13.62-3.05Z" fill="#46bed6"/>
  </g>
  <g id="ah" data-name="&amp;lt;径向重复&amp;gt;">
    <path d="M153.66,145.61l13.53,3.46c.4.1.63.52.5.91l-.11.33c-.13.39-.56.59-.94.44l-12.98-5.15Z" fill="#46bed6"/>
  </g>
  <g id="ai" data-name="&amp;lt;径向重复&amp;gt;">
    <path d="M152.91,147.43l12.82,5.54c.38.16.54.61.35.98l-.16.31c-.19.37-.64.5-1,.29l-12.01-7.11Z" fill="#46bed6"/>
  </g>
  <g id="aj" data-name="&amp;lt;径向重复&amp;gt;">
    <path d="M151.88,149.11l11.79,7.47c.35.22.44.69.19,1.02l-.21.28c-.24.33-.71.39-1.03.13l-10.75-8.91Z" fill="#46bed6"/>
  </g>
  <g id="ak" data-name="&amp;lt;径向重复&amp;gt;">
    <path d="M150.6,150.6l10.48,9.23c.31.27.32.75.03,1.04l-.25.25c-.29.29-.76.28-1.04-.03l-9.23-10.48Z" fill="#46bed6"/>
  </g>
  <g id="al" data-name="&amp;lt;径向重复&amp;gt;">
    <path d="M149.11,151.88l8.91,10.75c.26.32.2.79-.13,1.03l-.28.21c-.33.24-.8.15-1.02-.19l-7.47-11.79Z" fill="#46bed6"/>
  </g>
  <g id="am" data-name="&amp;lt;径向重复&amp;gt;">
    <path d="M147.43,152.91l7.11,12.01c.21.35.08.81-.29,1l-.31.16c-.37.19-.81.03-.98-.35l-5.54-12.82Z" fill="#46bed6"/>
  </g>
  <g id="an" data-name="&amp;lt;径向重复&amp;gt;">
    <path d="M145.61,153.66l5.15,12.98c.15.38-.05.81-.44.94l-.33.11c-.39.13-.81-.1-.91-.5l-3.46-13.53Z" fill="#46bed6"/>
  </g>
  <g id="ao" data-name="&amp;lt;径向重复&amp;gt;">
    <path d="M143.7,154.12l3.05,13.62c.09.4-.18.79-.58.86l-.35.05c-.41.06-.78-.23-.82-.64l-1.31-13.9Z" fill="#46bed6"/>
  </g>
</svg>