<?xml version="1.0" encoding="UTF-8"?>
<svg id="a" data-name="图层 1" xmlns="http://www.w3.org/2000/svg" width="100mm" height="100mm" viewBox="0 0 283.46 283.46">
  <g id="b" data-name="&amp;lt;径向重复&amp;gt;">
    <polygon points="143.41 174.53 140.05 174.53 141.73 231.3 143.41 174.53" fill="#0088c0"/>
  </g>
  <g id="c" data-name="&amp;lt;径向重复&amp;gt;">
    <polygon points="138.26 174.39 134.94 173.86 127.72 230.2 138.26 174.39" fill="#0088c0"/>
  </g>
  <g id="d" data-name="&amp;lt;径向重复&amp;gt;">
    <polygon points="133.19 173.45 130 172.41 114.05 226.92 133.19 173.45" fill="#0088c0"/>
  </g>
  <g id="e" data-name="&amp;lt;径向重复&amp;gt;">
    <polygon points="128.34 171.72 125.34 170.19 101.07 221.54 128.34 171.72" fill="#0088c0"/>
  </g>
  <g id="f" data-name="&amp;lt;径向重复&amp;gt;">
    <polygon points="123.81 169.26 121.09 167.28 89.08 214.2 123.81 169.26" fill="#0088c0"/>
  </g>
  <g id="g" data-name="&amp;lt;径向重复&amp;gt;">
    <polygon points="119.73 166.12 117.35 163.74 78.4 205.07 119.73 166.12" fill="#0088c0"/>
  </g>
  <g id="h" data-name="&amp;lt;径向重复&amp;gt;">
    <polygon points="116.18 162.37 114.21 159.65 69.27 194.38 116.18 162.37" fill="#0088c0"/>
  </g>
  <g id="i" data-name="&amp;lt;径向重复&amp;gt;">
    <polygon points="113.27 158.12 111.74 155.12 61.92 182.4 113.27 158.12" fill="#0088c0"/>
  </g>
  <g id="j" data-name="&amp;lt;径向重复&amp;gt;">
    <polygon points="111.06 153.47 110.02 150.27 56.55 169.41 111.06 153.47" fill="#0088c0"/>
  </g>
  <g id="k" data-name="&amp;lt;径向重复&amp;gt;">
    <polygon points="109.6 148.52 109.07 145.2 53.26 155.75 109.6 148.52" fill="#0088c0"/>
  </g>
  <g id="l" data-name="&amp;lt;径向重复&amp;gt;">
    <polygon points="108.93 143.41 108.93 140.05 52.16 141.73 108.93 143.41" fill="#0088c0"/>
  </g>
  <g id="m" data-name="&amp;lt;径向重复&amp;gt;">
    <polygon points="109.07 138.26 109.6 134.94 53.26 127.72 109.07 138.26" fill="#0088c0"/>
  </g>
  <g id="n" data-name="&amp;lt;径向重复&amp;gt;">
    <polygon points="110.02 133.19 111.06 130 56.55 114.05 110.02 133.19" fill="#0088c0"/>
  </g>
  <g id="o" data-name="&amp;lt;径向重复&amp;gt;">
    <polygon points="111.74 128.34 113.27 125.34 61.92 101.07 111.74 128.34" fill="#0088c0"/>
  </g>
  <g id="p" data-name="&amp;lt;径向重复&amp;gt;">
    <polygon points="114.21 123.81 116.18 121.09 69.27 89.08 114.21 123.81" fill="#0088c0"/>
  </g>
  <g id="q" data-name="&amp;lt;径向重复&amp;gt;">
    <polygon points="117.35 119.73 119.73 117.35 78.4 78.39 117.35 119.73" fill="#0088c0"/>
  </g>
  <g id="r" data-name="&amp;lt;径向重复&amp;gt;">
    <polygon points="121.09 116.18 123.81 114.21 89.08 69.27 121.09 116.18" fill="#0088c0"/>
  </g>
  <g id="s" data-name="&amp;lt;径向重复&amp;gt;">
    <polygon points="125.34 113.27 128.34 111.74 101.07 61.92 125.34 113.27" fill="#0088c0"/>
  </g>
  <g id="t" data-name="&amp;lt;径向重复&amp;gt;">
    <polygon points="130 111.06 133.2 110.02 114.05 56.55 130 111.06" fill="#0088c0"/>
  </g>
  <g id="u" data-name="&amp;lt;径向重复&amp;gt;">
    <polygon points="134.94 109.6 138.26 109.07 127.72 53.26 134.94 109.6" fill="#0088c0"/>
  </g>
  <g id="v" data-name="&amp;lt;径向重复&amp;gt;">
    <polygon points="140.05 108.93 143.41 108.93 141.73 52.16 140.05 108.93" fill="#0088c0"/>
  </g>
  <g id="w" data-name="&amp;lt;径向重复&amp;gt;">
    <polygon points="145.2 109.07 148.52 109.6 155.75 53.26 145.2 109.07" fill="#0088c0"/>
  </g>
  <g id="x" data-name="&amp;lt;径向重复&amp;gt;">
    <polygon points="150.27 110.02 153.47 111.06 169.41 56.55 150.27 110.02" fill="#0088c0"/>
  </g>
  <g id="y" data-name="&amp;lt;径向重复&amp;gt;">
    <polygon points="155.13 111.74 158.12 113.27 182.4 61.92 155.13 111.74" fill="#0088c0"/>
  </g>
  <g id="z" data-name="&amp;lt;径向重复&amp;gt;">
    <polygon points="159.65 114.21 162.37 116.18 194.38 69.27 159.65 114.21" fill="#0088c0"/>
  </g>
  <g id="aa" data-name="&amp;lt;径向重复&amp;gt;">
    <polygon points="163.74 117.35 166.12 119.73 205.07 78.4 163.74 117.35" fill="#0088c0"/>
  </g>
  <g id="ab" data-name="&amp;lt;径向重复&amp;gt;">
    <polygon points="167.28 121.09 169.26 123.81 214.2 89.08 167.28 121.09" fill="#0088c0"/>
  </g>
  <g id="ac" data-name="&amp;lt;径向重复&amp;gt;">
    <polygon points="170.2 125.34 171.72 128.34 221.54 101.07 170.2 125.34" fill="#0088c0"/>
  </g>
  <g id="ad" data-name="&amp;lt;径向重复&amp;gt;">
    <polygon points="172.41 130 173.45 133.2 226.92 114.05 172.41 130" fill="#0088c0"/>
  </g>
  <g id="ae" data-name="&amp;lt;径向重复&amp;gt;">
    <polygon points="173.87 134.94 174.39 138.26 230.2 127.72 173.87 134.94" fill="#0088c0"/>
  </g>
  <g id="af" data-name="&amp;lt;径向重复&amp;gt;">
    <polygon points="174.53 140.05 174.53 143.41 231.3 141.73 174.53 140.05" fill="#0088c0"/>
  </g>
  <g id="ag" data-name="&amp;lt;径向重复&amp;gt;">
    <polygon points="174.39 145.2 173.86 148.52 230.2 155.74 174.39 145.2" fill="#0088c0"/>
  </g>
  <g id="ah" data-name="&amp;lt;径向重复&amp;gt;">
    <polygon points="173.45 150.27 172.41 153.47 226.92 169.41 173.45 150.27" fill="#0088c0"/>
  </g>
  <g id="ai" data-name="&amp;lt;径向重复&amp;gt;">
    <polygon points="171.72 155.13 170.19 158.12 221.54 182.4 171.72 155.13" fill="#0088c0"/>
  </g>
  <g id="aj" data-name="&amp;lt;径向重复&amp;gt;">
    <polygon points="169.26 159.65 167.28 162.37 214.2 194.38 169.26 159.65" fill="#0088c0"/>
  </g>
  <g id="ak" data-name="&amp;lt;径向重复&amp;gt;">
    <polygon points="166.12 163.74 163.74 166.11 205.07 205.07 166.12 163.74" fill="#0088c0"/>
  </g>
  <g id="al" data-name="&amp;lt;径向重复&amp;gt;">
    <polygon points="162.37 167.28 159.65 169.26 194.38 214.2 162.37 167.28" fill="#0088c0"/>
  </g>
  <g id="am" data-name="&amp;lt;径向重复&amp;gt;">
    <polygon points="158.12 170.2 155.12 171.72 182.4 221.54 158.12 170.2" fill="#0088c0"/>
  </g>
  <g id="an" data-name="&amp;lt;径向重复&amp;gt;">
    <polygon points="153.47 172.41 150.27 173.45 169.41 226.92 153.47 172.41" fill="#0088c0"/>
  </g>
  <g id="ao" data-name="&amp;lt;径向重复&amp;gt;">
    <polygon points="148.52 173.87 145.2 174.39 155.75 230.2 148.52 173.87" fill="#0088c0"/>
  </g>
</svg>