<?xml version="1.0" encoding="UTF-8"?>
<svg id="a" data-name="图层 1" xmlns="http://www.w3.org/2000/svg" width="100mm" height="100mm" viewBox="0 0 283.46 283.46">
  <g id="b" data-name="&amp;lt;径向重复&amp;gt;">
    <polygon points="201.87 234.69 197.4 237.43 153.31 160.6 201.87 234.69" fill="#a1d8ea"/>
  </g>
  <g id="c" data-name="&amp;lt;径向重复&amp;gt;">
    <polygon points="186.59 242.95 181.75 244.96 150.22 162.18 186.59 242.95" fill="#a1d8ea"/>
  </g>
  <g id="d" data-name="&amp;lt;径向重复&amp;gt;">
    <polygon points="170.2 248.72 165.11 249.95 146.92 163.25 170.2 248.72" fill="#a1d8ea"/>
  </g>
  <g id="e" data-name="&amp;lt;径向重复&amp;gt;">
    <polygon points="153.12 251.86 147.89 252.27 143.49 163.8 153.12 251.86" fill="#a1d8ea"/>
  </g>
  <g id="f" data-name="&amp;lt;径向重复&amp;gt;">
    <polygon points="135.75 252.28 130.52 251.88 140.01 163.8 135.75 252.28" fill="#a1d8ea"/>
  </g>
  <g id="g" data-name="&amp;lt;径向重复&amp;gt;">
    <polygon points="118.53 249.99 113.43 248.77 136.58 163.26 118.53 249.99" fill="#a1d8ea"/>
  </g>
  <g id="h" data-name="&amp;lt;径向重复&amp;gt;">
    <polygon points="101.88 245.02 97.03 243.02 133.28 162.19 101.88 245.02" fill="#a1d8ea"/>
  </g>
  <g id="i" data-name="&amp;lt;径向重复&amp;gt;">
    <polygon points="86.21 237.52 81.74 234.78 130.18 160.61 86.21 237.52" fill="#a1d8ea"/>
  </g>
  <g id="j" data-name="&amp;lt;径向重复&amp;gt;">
    <polygon points="71.91 227.65 67.92 224.25 127.37 158.58 71.91 227.65" fill="#a1d8ea"/>
  </g>
  <g id="k" data-name="&amp;lt;径向重复&amp;gt;">
    <polygon points="59.33 215.67 55.92 211.69 124.91 156.12 59.33 215.67" fill="#a1d8ea"/>
  </g>
  <g id="l" data-name="&amp;lt;径向重复&amp;gt;">
    <polygon points="48.78 201.87 46.03 197.4 122.87 153.31 48.78 201.87" fill="#a1d8ea"/>
  </g>
  <g id="m" data-name="&amp;lt;径向重复&amp;gt;">
    <polygon points="40.51 186.59 38.5 181.75 121.29 150.22 40.51 186.59" fill="#a1d8ea"/>
  </g>
  <g id="n" data-name="&amp;lt;径向重复&amp;gt;">
    <polygon points="34.74 170.2 33.52 165.11 120.21 146.92 34.74 170.2" fill="#a1d8ea"/>
  </g>
  <g id="o" data-name="&amp;lt;径向重复&amp;gt;">
    <polygon points="31.61 153.12 31.19 147.89 119.67 143.49 31.61 153.12" fill="#a1d8ea"/>
  </g>
  <g id="p" data-name="&amp;lt;径向重复&amp;gt;">
    <polygon points="31.18 135.75 31.59 130.52 119.66 140.01 31.18 135.75" fill="#a1d8ea"/>
  </g>
  <g id="q" data-name="&amp;lt;径向重复&amp;gt;">
    <polygon points="33.48 118.53 34.7 113.43 120.2 136.58 33.48 118.53" fill="#a1d8ea"/>
  </g>
  <g id="r" data-name="&amp;lt;径向重复&amp;gt;">
    <polygon points="38.44 101.88 40.44 97.03 121.27 133.28 38.44 101.88" fill="#a1d8ea"/>
  </g>
  <g id="s" data-name="&amp;lt;径向重复&amp;gt;">
    <polygon points="45.95 86.21 48.68 81.74 122.85 130.18 45.95 86.21" fill="#a1d8ea"/>
  </g>
  <g id="t" data-name="&amp;lt;径向重复&amp;gt;">
    <polygon points="55.81 71.91 59.21 67.92 124.89 127.37 55.81 71.91" fill="#a1d8ea"/>
  </g>
  <g id="u" data-name="&amp;lt;径向重复&amp;gt;">
    <polygon points="67.79 59.33 71.78 55.92 127.34 124.91 67.79 59.33" fill="#a1d8ea"/>
  </g>
  <g id="v" data-name="&amp;lt;径向重复&amp;gt;">
    <polygon points="81.59 48.78 86.06 46.03 130.15 122.87 81.59 48.78" fill="#a1d8ea"/>
  </g>
  <g id="w" data-name="&amp;lt;径向重复&amp;gt;">
    <polygon points="96.87 40.51 101.72 38.5 133.25 121.29 96.87 40.51" fill="#a1d8ea"/>
  </g>
  <g id="x" data-name="&amp;lt;径向重复&amp;gt;">
    <polygon points="113.26 34.74 118.36 33.52 136.55 120.21 113.26 34.74" fill="#a1d8ea"/>
  </g>
  <g id="y" data-name="&amp;lt;径向重复&amp;gt;">
    <polygon points="130.35 31.61 135.57 31.19 139.98 119.67 130.35 31.61" fill="#a1d8ea"/>
  </g>
  <g id="z" data-name="&amp;lt;径向重复&amp;gt;">
    <polygon points="147.72 31.18 152.94 31.59 143.45 119.66 147.72 31.18" fill="#a1d8ea"/>
  </g>
  <g id="aa" data-name="&amp;lt;径向重复&amp;gt;">
    <polygon points="164.94 33.48 170.04 34.7 146.88 120.2 164.94 33.48" fill="#a1d8ea"/>
  </g>
  <g id="ab" data-name="&amp;lt;径向重复&amp;gt;">
    <polygon points="181.58 38.44 186.43 40.44 150.19 121.27 181.58 38.44" fill="#a1d8ea"/>
  </g>
  <g id="ac" data-name="&amp;lt;径向重复&amp;gt;">
    <polygon points="197.25 45.95 201.73 48.68 153.28 122.85 197.25 45.95" fill="#a1d8ea"/>
  </g>
  <g id="ad" data-name="&amp;lt;径向重复&amp;gt;">
    <polygon points="211.55 55.81 215.54 59.21 156.09 124.89 211.55 55.81" fill="#a1d8ea"/>
  </g>
  <g id="ae" data-name="&amp;lt;径向重复&amp;gt;">
    <polygon points="224.14 67.79 227.54 71.78 158.55 127.34 224.14 67.79" fill="#a1d8ea"/>
  </g>
  <g id="af" data-name="&amp;lt;径向重复&amp;gt;">
    <polygon points="234.69 81.59 237.43 86.06 160.6 130.15 234.69 81.59" fill="#a1d8ea"/>
  </g>
  <g id="ag" data-name="&amp;lt;径向重复&amp;gt;">
    <polygon points="242.95 96.88 244.96 101.72 162.17 133.25 242.95 96.88" fill="#a1d8ea"/>
  </g>
  <g id="ah" data-name="&amp;lt;径向重复&amp;gt;">
    <polygon points="248.72 113.26 249.95 118.36 163.25 136.55 248.72 113.26" fill="#a1d8ea"/>
  </g>
  <g id="ai" data-name="&amp;lt;径向重复&amp;gt;">
    <polygon points="251.86 130.35 252.27 135.57 163.8 139.98 251.86 130.35" fill="#a1d8ea"/>
  </g>
  <g id="aj" data-name="&amp;lt;径向重复&amp;gt;">
    <polygon points="252.28 147.72 251.88 152.94 163.8 143.45 252.28 147.72" fill="#a1d8ea"/>
  </g>
  <g id="ak" data-name="&amp;lt;径向重复&amp;gt;">
    <polygon points="249.99 164.94 248.77 170.04 163.26 146.88 249.99 164.94" fill="#a1d8ea"/>
  </g>
  <g id="al" data-name="&amp;lt;径向重复&amp;gt;">
    <polygon points="245.02 181.58 243.02 186.43 162.19 150.19 245.02 181.58" fill="#a1d8ea"/>
  </g>
  <g id="am" data-name="&amp;lt;径向重复&amp;gt;">
    <polygon points="237.52 197.25 234.78 201.73 160.61 153.28 237.52 197.25" fill="#a1d8ea"/>
  </g>
  <g id="an" data-name="&amp;lt;径向重复&amp;gt;">
    <polygon points="227.65 211.55 224.25 215.54 158.58 156.09 227.65 211.55" fill="#a1d8ea"/>
  </g>
  <g id="ao" data-name="&amp;lt;径向重复&amp;gt;">
    <polygon points="215.67 224.14 211.69 227.54 156.12 158.55 215.67 224.14" fill="#a1d8ea"/>
  </g>
</svg>