<?xml version="1.0" encoding="UTF-8"?>
<svg id="a" data-name="图层 1" xmlns="http://www.w3.org/2000/svg" width="100mm" height="100mm" viewBox="0 0 283.46 283.46">
  <g id="b" data-name="&amp;lt;径向重复&amp;gt;">
    <polygon points="140.75 122.64 142.72 122.64 141.73 89.43 140.75 122.64" fill="#0088c0"/>
  </g>
  <g id="c" data-name="&amp;lt;径向重复&amp;gt;">
    <polygon points="143.75 122.73 145.69 123.03 149.91 90.07 143.75 122.73" fill="#0088c0"/>
  </g>
  <g id="d" data-name="&amp;lt;径向重复&amp;gt;">
    <polygon points="146.7 123.27 148.57 123.88 157.9 91.99 146.7 123.27" fill="#0088c0"/>
  </g>
  <g id="e" data-name="&amp;lt;径向重复&amp;gt;">
    <polygon points="149.52 124.28 151.27 125.17 165.48 95.12 149.52 124.28" fill="#0088c0"/>
  </g>
  <g id="f" data-name="&amp;lt;径向重复&amp;gt;">
    <polygon points="152.16 125.71 153.75 126.87 172.48 99.41 152.16 125.71" fill="#0088c0"/>
  </g>
  <g id="g" data-name="&amp;lt;径向重复&amp;gt;">
    <polygon points="154.53 127.54 155.93 128.93 178.72 104.74 154.53 127.54" fill="#0088c0"/>
  </g>
  <g id="h" data-name="&amp;lt;径向重复&amp;gt;">
    <polygon points="156.6 129.71 157.75 131.31 184.05 110.98 156.6 129.71" fill="#0088c0"/>
  </g>
  <g id="i" data-name="&amp;lt;径向重复&amp;gt;">
    <polygon points="158.29 132.19 159.19 133.94 188.34 117.98 158.29 132.19" fill="#0088c0"/>
  </g>
  <g id="j" data-name="&amp;lt;径向重复&amp;gt;">
    <polygon points="159.58 134.9 160.19 136.77 191.48 125.57 159.58 134.9" fill="#0088c0"/>
  </g>
  <g id="k" data-name="&amp;lt;径向重复&amp;gt;">
    <polygon points="160.43 137.78 160.74 139.72 193.4 133.55 160.43 137.78" fill="#0088c0"/>
  </g>
  <g id="l" data-name="&amp;lt;径向重复&amp;gt;">
    <polygon points="160.82 140.75 160.82 142.71 194.04 141.73 160.82 140.75" fill="#0088c0"/>
  </g>
  <g id="m" data-name="&amp;lt;径向重复&amp;gt;">
    <polygon points="160.74 143.75 160.43 145.69 193.4 149.92 160.74 143.75" fill="#0088c0"/>
  </g>
  <g id="n" data-name="&amp;lt;径向重复&amp;gt;">
    <polygon points="160.19 146.7 159.58 148.57 191.48 157.9 160.19 146.7" fill="#0088c0"/>
  </g>
  <g id="o" data-name="&amp;lt;径向重复&amp;gt;">
    <polygon points="159.19 149.52 158.29 151.28 188.34 165.48 159.19 149.52" fill="#0088c0"/>
  </g>
  <g id="p" data-name="&amp;lt;径向重复&amp;gt;">
    <polygon points="157.75 152.16 156.6 153.75 184.05 172.48 157.75 152.16" fill="#0088c0"/>
  </g>
  <g id="q" data-name="&amp;lt;径向重复&amp;gt;">
    <polygon points="155.93 154.53 154.54 155.93 178.72 178.72 155.93 154.53" fill="#0088c0"/>
  </g>
  <g id="r" data-name="&amp;lt;径向重复&amp;gt;">
    <polygon points="153.75 156.6 152.16 157.75 172.48 184.05 153.75 156.6" fill="#0088c0"/>
  </g>
  <g id="s" data-name="&amp;lt;径向重复&amp;gt;">
    <polygon points="151.28 158.29 149.52 159.19 165.48 188.34 151.28 158.29" fill="#0088c0"/>
  </g>
  <g id="t" data-name="&amp;lt;径向重复&amp;gt;">
    <polygon points="148.57 159.58 146.7 160.19 157.9 191.48 148.57 159.58" fill="#0088c0"/>
  </g>
  <g id="u" data-name="&amp;lt;径向重复&amp;gt;">
    <polygon points="145.69 160.43 143.75 160.74 149.91 193.39 145.69 160.43" fill="#0088c0"/>
  </g>
  <g id="v" data-name="&amp;lt;径向重复&amp;gt;">
    <polygon points="142.72 160.82 140.75 160.82 141.73 194.04 142.72 160.82" fill="#0088c0"/>
  </g>
  <g id="w" data-name="&amp;lt;径向重复&amp;gt;">
    <polygon points="139.72 160.74 137.77 160.43 133.55 193.4 139.72 160.74" fill="#0088c0"/>
  </g>
  <g id="x" data-name="&amp;lt;径向重复&amp;gt;">
    <polygon points="136.77 160.19 134.9 159.58 125.57 191.48 136.77 160.19" fill="#0088c0"/>
  </g>
  <g id="y" data-name="&amp;lt;径向重复&amp;gt;">
    <polygon points="133.94 159.19 132.19 158.29 117.99 188.34 133.94 159.19" fill="#0088c0"/>
  </g>
  <g id="z" data-name="&amp;lt;径向重复&amp;gt;">
    <polygon points="131.31 157.75 129.72 156.6 110.99 184.05 131.31 157.75" fill="#0088c0"/>
  </g>
  <g id="aa" data-name="&amp;lt;径向重复&amp;gt;">
    <polygon points="128.93 155.93 127.54 154.53 104.74 178.72 128.93 155.93" fill="#0088c0"/>
  </g>
  <g id="ab" data-name="&amp;lt;径向重复&amp;gt;">
    <polygon points="126.87 153.75 125.71 152.16 99.42 172.48 126.87 153.75" fill="#0088c0"/>
  </g>
  <g id="ac" data-name="&amp;lt;径向重复&amp;gt;">
    <polygon points="125.17 151.27 124.28 149.52 95.13 165.48 125.17 151.27" fill="#0088c0"/>
  </g>
  <g id="ad" data-name="&amp;lt;径向重复&amp;gt;">
    <polygon points="123.88 148.57 123.28 146.69 91.99 157.9 123.88 148.57" fill="#0088c0"/>
  </g>
  <g id="ae" data-name="&amp;lt;径向重复&amp;gt;">
    <polygon points="123.03 145.69 122.72 143.75 90.07 149.91 123.03 145.69" fill="#0088c0"/>
  </g>
  <g id="af" data-name="&amp;lt;径向重复&amp;gt;">
    <polygon points="122.64 142.72 122.64 140.75 89.42 141.73 122.64 142.72" fill="#0088c0"/>
  </g>
  <g id="ag" data-name="&amp;lt;径向重复&amp;gt;">
    <polygon points="122.73 139.72 123.03 137.77 90.07 133.55 122.73 139.72" fill="#0088c0"/>
  </g>
  <g id="ah" data-name="&amp;lt;径向重复&amp;gt;">
    <polygon points="123.27 136.77 123.88 134.9 91.98 125.57 123.27 136.77" fill="#0088c0"/>
  </g>
  <g id="ai" data-name="&amp;lt;径向重复&amp;gt;">
    <polygon points="124.28 133.94 125.17 132.19 95.13 117.98 124.28 133.94" fill="#0088c0"/>
  </g>
  <g id="aj" data-name="&amp;lt;径向重复&amp;gt;">
    <polygon points="125.71 131.31 126.87 129.72 99.41 110.99 125.71 131.31" fill="#0088c0"/>
  </g>
  <g id="ak" data-name="&amp;lt;径向重复&amp;gt;">
    <polygon points="127.54 128.93 128.93 127.54 104.74 104.75 127.54 128.93" fill="#0088c0"/>
  </g>
  <g id="al" data-name="&amp;lt;径向重复&amp;gt;">
    <polygon points="129.72 126.87 131.31 125.71 110.99 99.41 129.72 126.87" fill="#0088c0"/>
  </g>
  <g id="am" data-name="&amp;lt;径向重复&amp;gt;">
    <polygon points="132.19 125.17 133.94 124.28 117.98 95.13 132.19 125.17" fill="#0088c0"/>
  </g>
  <g id="an" data-name="&amp;lt;径向重复&amp;gt;">
    <polygon points="134.9 123.88 136.77 123.27 125.57 91.98 134.9 123.88" fill="#0088c0"/>
  </g>
  <g id="ao" data-name="&amp;lt;径向重复&amp;gt;">
    <polygon points="137.78 123.03 139.72 122.72 133.55 90.07 137.78 123.03" fill="#0088c0"/>
  </g>
</svg>