<?xml version="1.0" encoding="UTF-8"?>
<svg id="a" data-name="图层 1" xmlns="http://www.w3.org/2000/svg" width="100mm" height="100mm" viewBox="0 0 283.46 283.46">
  <g id="b" data-name="&amp;lt;径向重复&amp;gt;">
    <polygon points="145.14 31.18 138.32 31.18 141.73 99.29 145.14 31.18" fill="#a1d8ea"/>
  </g>
  <g id="c" data-name="&amp;lt;径向重复&amp;gt;">
    <polygon points="162.39 33.08 155.65 32.01 148.37 99.81 162.39 33.08" fill="#a1d8ea"/>
  </g>
  <g id="d" data-name="&amp;lt;径向重复&amp;gt;">
    <polygon points="179.14 37.65 172.65 35.54 154.85 101.37 179.14 37.65" fill="#a1d8ea"/>
  </g>
  <g id="e" data-name="&amp;lt;径向重复&amp;gt;">
    <polygon points="194.96 44.78 188.88 41.68 161 103.91 194.96 44.78" fill="#a1d8ea"/>
  </g>
  <g id="f" data-name="&amp;lt;径向重复&amp;gt;">
    <polygon points="209.47 54.3 203.95 50.29 166.68 107.39 209.47 54.3" fill="#a1d8ea"/>
  </g>
  <g id="g" data-name="&amp;lt;径向重复&amp;gt;">
    <polygon points="222.31 65.97 217.49 61.15 171.74 111.72 222.31 65.97" fill="#a1d8ea"/>
  </g>
  <g id="h" data-name="&amp;lt;径向重复&amp;gt;">
    <polygon points="233.17 79.51 229.16 73.99 176.07 116.78 233.17 79.51" fill="#a1d8ea"/>
  </g>
  <g id="i" data-name="&amp;lt;径向重复&amp;gt;">
    <polygon points="241.78 94.58 238.68 88.5 179.55 122.46 241.78 94.58" fill="#a1d8ea"/>
  </g>
  <g id="j" data-name="&amp;lt;径向重复&amp;gt;">
    <polygon points="247.93 110.81 245.82 104.32 182.1 128.61 247.93 110.81" fill="#a1d8ea"/>
  </g>
  <g id="k" data-name="&amp;lt;径向重复&amp;gt;">
    <polygon points="251.46 127.8 250.39 121.06 183.65 135.09 251.46 127.8" fill="#a1d8ea"/>
  </g>
  <g id="l" data-name="&amp;lt;径向重复&amp;gt;">
    <polygon points="252.28 145.14 252.28 138.32 184.17 141.73 252.28 145.14" fill="#a1d8ea"/>
  </g>
  <g id="m" data-name="&amp;lt;径向重复&amp;gt;">
    <polygon points="250.39 162.4 251.46 155.65 183.65 148.37 250.39 162.4" fill="#a1d8ea"/>
  </g>
  <g id="n" data-name="&amp;lt;径向重复&amp;gt;">
    <polygon points="245.82 179.14 247.93 172.65 182.1 154.84 245.82 179.14" fill="#a1d8ea"/>
  </g>
  <g id="o" data-name="&amp;lt;径向重复&amp;gt;">
    <polygon points="238.69 194.96 241.78 188.88 179.55 161 238.69 194.96" fill="#a1d8ea"/>
  </g>
  <g id="p" data-name="&amp;lt;径向重复&amp;gt;">
    <polygon points="229.17 209.47 233.18 203.95 176.07 166.68 229.17 209.47" fill="#a1d8ea"/>
  </g>
  <g id="q" data-name="&amp;lt;径向重复&amp;gt;">
    <polygon points="217.49 222.32 222.32 217.49 171.75 171.74 217.49 222.32" fill="#a1d8ea"/>
  </g>
  <g id="r" data-name="&amp;lt;径向重复&amp;gt;">
    <polygon points="203.95 233.17 209.48 229.16 166.68 176.07 203.95 233.17" fill="#a1d8ea"/>
  </g>
  <g id="s" data-name="&amp;lt;径向重复&amp;gt;">
    <polygon points="188.88 241.78 194.96 238.68 161 179.55 188.88 241.78" fill="#a1d8ea"/>
  </g>
  <g id="t" data-name="&amp;lt;径向重复&amp;gt;">
    <polygon points="172.65 247.93 179.14 245.82 154.85 182.1 172.65 247.93" fill="#a1d8ea"/>
  </g>
  <g id="u" data-name="&amp;lt;径向重复&amp;gt;">
    <polygon points="155.66 251.46 162.4 250.39 148.37 183.65 155.66 251.46" fill="#a1d8ea"/>
  </g>
  <g id="v" data-name="&amp;lt;径向重复&amp;gt;">
    <polygon points="138.32 252.28 145.15 252.28 141.74 184.17 138.32 252.28" fill="#a1d8ea"/>
  </g>
  <g id="w" data-name="&amp;lt;径向重复&amp;gt;">
    <polygon points="121.07 250.39 127.81 251.46 135.1 183.65 121.07 250.39" fill="#a1d8ea"/>
  </g>
  <g id="x" data-name="&amp;lt;径向重复&amp;gt;">
    <polygon points="104.33 245.82 110.82 247.93 128.62 182.1 104.33 245.82" fill="#a1d8ea"/>
  </g>
  <g id="y" data-name="&amp;lt;径向重复&amp;gt;">
    <polygon points="88.51 238.69 94.59 241.78 122.47 179.55 88.51 238.69" fill="#a1d8ea"/>
  </g>
  <g id="z" data-name="&amp;lt;径向重复&amp;gt;">
    <polygon points="73.99 229.17 79.52 233.18 116.79 176.07 73.99 229.17" fill="#a1d8ea"/>
  </g>
  <g id="aa" data-name="&amp;lt;径向重复&amp;gt;">
    <polygon points="61.15 217.49 65.98 222.32 111.72 171.75 61.15 217.49" fill="#a1d8ea"/>
  </g>
  <g id="ab" data-name="&amp;lt;径向重复&amp;gt;">
    <polygon points="50.29 203.95 54.3 209.48 107.4 166.68 50.29 203.95" fill="#a1d8ea"/>
  </g>
  <g id="ac" data-name="&amp;lt;径向重复&amp;gt;">
    <polygon points="41.68 188.88 44.78 194.96 103.92 161 41.68 188.88" fill="#a1d8ea"/>
  </g>
  <g id="ad" data-name="&amp;lt;径向重复&amp;gt;">
    <polygon points="35.54 172.65 37.65 179.14 101.37 154.85 35.54 172.65" fill="#a1d8ea"/>
  </g>
  <g id="ae" data-name="&amp;lt;径向重复&amp;gt;">
    <polygon points="32.01 155.66 33.08 162.4 99.81 148.37 32.01 155.66" fill="#a1d8ea"/>
  </g>
  <g id="af" data-name="&amp;lt;径向重复&amp;gt;">
    <polygon points="31.18 138.32 31.18 145.15 99.29 141.73 31.18 138.32" fill="#a1d8ea"/>
  </g>
  <g id="ag" data-name="&amp;lt;径向重复&amp;gt;">
    <polygon points="33.08 121.07 32.01 127.81 99.81 135.09 33.08 121.07" fill="#a1d8ea"/>
  </g>
  <g id="ah" data-name="&amp;lt;径向重复&amp;gt;">
    <polygon points="37.65 104.33 35.54 110.82 101.37 128.62 37.65 104.33" fill="#a1d8ea"/>
  </g>
  <g id="ai" data-name="&amp;lt;径向重复&amp;gt;">
    <polygon points="44.78 88.5 41.68 94.59 103.92 122.47 44.78 88.5" fill="#a1d8ea"/>
  </g>
  <g id="aj" data-name="&amp;lt;径向重复&amp;gt;">
    <polygon points="54.3 73.99 50.29 79.51 107.39 116.79 54.3 73.99" fill="#a1d8ea"/>
  </g>
  <g id="ak" data-name="&amp;lt;径向重复&amp;gt;">
    <polygon points="65.97 61.15 61.15 65.98 111.72 111.72 65.97 61.15" fill="#a1d8ea"/>
  </g>
  <g id="al" data-name="&amp;lt;径向重复&amp;gt;">
    <polygon points="79.51 50.29 73.99 54.3 116.79 107.4 79.51 50.29" fill="#a1d8ea"/>
  </g>
  <g id="am" data-name="&amp;lt;径向重复&amp;gt;">
    <polygon points="94.58 41.68 88.5 44.78 122.46 103.92 94.58 41.68" fill="#a1d8ea"/>
  </g>
  <g id="an" data-name="&amp;lt;径向重复&amp;gt;">
    <polygon points="110.81 35.54 104.32 37.64 128.62 101.37 110.81 35.54" fill="#a1d8ea"/>
  </g>
  <g id="ao" data-name="&amp;lt;径向重复&amp;gt;">
    <polygon points="127.81 32.01 121.07 33.08 135.09 99.81 127.81 32.01" fill="#a1d8ea"/>
  </g>
</svg>