<?xml version="1.0" encoding="UTF-8"?>
<svg id="a" data-name="图层 1" xmlns="http://www.w3.org/2000/svg" width="100mm" height="100mm" viewBox="0 0 283.46 283.46">
  <path d="M146.02,86l4.05-28.7c.12-.84-.5-1.61-1.35-1.68l-.72-.06c-.85-.07-1.58.6-1.59,1.45l-.39,28.98Z" fill="#46bed6"/>
  <path d="M154.69,87.36l8.49-27.71c.25-.81-.24-1.67-1.07-1.87l-.71-.17c-.83-.2-1.65.35-1.8,1.18l-4.92,28.56Z" fill="#46bed6"/>
  <path d="M163.04,90.05l12.72-26.04c.37-.77.02-1.69-.76-2.01l-.67-.28c-.79-.32-1.69.08-1.96.89l-9.33,27.44Z" fill="#46bed6"/>
  <path d="M170.87,94.02l16.64-23.73c.49-.7.29-1.66-.44-2.11l-.62-.38c-.73-.44-1.68-.18-2.08.57l-13.51,25.64Z" fill="#46bed6"/>
  <path d="M177.98,99.16l20.15-20.83c.59-.61.54-1.6-.1-2.15l-.55-.47c-.65-.55-1.63-.44-2.14.24l-17.35,23.21Z" fill="#46bed6"/>
  <path d="M184.19,105.36l23.16-17.43c.68-.51.79-1.49.23-2.14l-.47-.55c-.55-.65-1.54-.69-2.15-.1l-20.77,20.22Z" fill="#46bed6"/>
  <path d="M189.36,112.44l25.6-13.59c.75-.4,1.01-1.35.57-2.08l-.38-.62c-.45-.73-1.41-.92-2.11-.43l-23.68,16.72Z" fill="#46bed6"/>
  <path d="M193.36,120.25l27.42-9.42c.81-.28,1.21-1.18.88-1.96l-.28-.67c-.33-.79-1.25-1.13-2.02-.76l-26,12.81Z" fill="#46bed6"/>
  <path d="M196.08,128.59l28.55-5.02c.84-.15,1.38-.97,1.18-1.8l-.17-.71c-.2-.83-1.06-1.31-1.87-1.06l-27.69,8.58Z" fill="#46bed6"/>
  <path d="M197.47,137.25l28.99-.49c.85-.01,1.51-.74,1.45-1.59l-.06-.72c-.07-.85-.84-1.46-1.68-1.34l-28.69,4.15Z" fill="#46bed6"/>
  <path d="M197.49,146.02l28.71,4.05c.84.12,1.61-.5,1.68-1.35l.06-.72c.07-.85-.6-1.58-1.45-1.59l-28.99-.39Z" fill="#46bed6"/>
  <path d="M196.13,154.69l27.72,8.49c.81.25,1.67-.24,1.87-1.07l.17-.71c.2-.83-.35-1.65-1.19-1.8l-28.57-4.92Z" fill="#46bed6"/>
  <path d="M193.43,163.04l26.05,12.72c.77.37,1.69.02,2.01-.76l.28-.67c.32-.79-.08-1.69-.89-1.96l-27.45-9.32Z" fill="#46bed6"/>
  <path d="M189.46,170.86l23.74,16.64c.7.49,1.66.29,2.11-.44l.38-.62c.44-.73.18-1.68-.57-2.07l-25.65-13.5Z" fill="#46bed6"/>
  <path d="M184.32,177.96l20.84,20.14c.61.59,1.6.54,2.15-.1l.47-.55c.55-.65.44-1.63-.24-2.14l-23.22-17.35Z" fill="#46bed6"/>
  <path d="M178.12,184.18l17.43,23.16c.51.68,1.49.79,2.14.23l.55-.47c.65-.55.69-1.54.1-2.15l-20.22-20.77Z" fill="#46bed6"/>
  <path d="M171.03,189.34l13.59,25.6c.4.75,1.35,1.01,2.08.56l.62-.38c.73-.45.92-1.41.43-2.11l-16.72-23.67Z" fill="#46bed6"/>
  <path d="M163.22,193.34l9.42,27.41c.28.81,1.18,1.21,1.96.88l.67-.28c.79-.33,1.13-1.25.76-2.01l-12.81-26Z" fill="#46bed6"/>
  <path d="M154.88,196.07l5.02,28.54c.15.84.97,1.38,1.8,1.18l.71-.17c.83-.2,1.32-1.06,1.06-1.87l-8.59-27.68Z" fill="#46bed6"/>
  <path d="M146.22,197.45l.49,28.98c.01.85.74,1.51,1.59,1.45l.72-.06c.85-.07,1.46-.84,1.34-1.68l-4.15-28.68Z" fill="#46bed6"/>
  <path d="M137.44,197.47l-4.05,28.7c-.12.84.5,1.61,1.35,1.68l.72.06c.85.07,1.58-.6,1.59-1.45l.39-28.98Z" fill="#46bed6"/>
  <path d="M128.77,196.11l-8.49,27.71c-.25.81.24,1.67,1.07,1.87l.71.17c.83.2,1.65-.35,1.8-1.18l4.92-28.56Z" fill="#46bed6"/>
  <path d="M120.42,193.41l-12.72,26.04c-.37.77-.02,1.69.76,2.01l.67.28c.79.32,1.69-.08,1.96-.89l9.33-27.44Z" fill="#46bed6"/>
  <path d="M112.6,189.44l-16.64,23.73c-.49.7-.29,1.66.44,2.11l.62.38c.73.44,1.68.18,2.08-.57l13.51-25.64Z" fill="#46bed6"/>
  <path d="M105.49,184.3l-20.15,20.83c-.59.61-.54,1.6.1,2.15l.55.47c.65.55,1.63.44,2.14-.24l17.35-23.21Z" fill="#46bed6"/>
  <path d="M99.27,178.11l-23.16,17.43c-.68.51-.79,1.49-.23,2.14l.47.55c.55.65,1.54.69,2.15.1l20.77-20.22Z" fill="#46bed6"/>
  <path d="M94.11,171.02l-25.6,13.59c-.75.4-1.01,1.35-.57,2.08l.38.62c.45.73,1.41.92,2.11.43l23.68-16.72Z" fill="#46bed6"/>
  <path d="M90.11,163.21l-27.42,9.42c-.81.28-1.21,1.18-.88,1.96l.28.67c.33.79,1.25,1.13,2.02.76l26-12.81Z" fill="#46bed6"/>
  <path d="M87.38,154.88l-28.55,5.02c-.84.15-1.38.97-1.18,1.8l.17.71c.2.83,1.06,1.31,1.87,1.06l27.69-8.58Z" fill="#46bed6"/>
  <path d="M85.99,146.21l-28.99.49c-.85.01-1.51.74-1.45,1.59l.06.72c.07.85.84,1.46,1.68,1.34l28.69-4.15Z" fill="#46bed6"/>
  <path d="M85.98,137.44l-28.71-4.05c-.84-.12-1.61.5-1.68,1.35l-.06.72c-.07.85.6,1.58,1.45,1.59l28.99.39Z" fill="#46bed6"/>
  <path d="M87.34,128.78l-27.72-8.49c-.81-.25-1.67.24-1.87,1.07l-.17.71c-.2.83.35,1.65,1.19,1.8l28.57,4.92Z" fill="#46bed6"/>
  <path d="M90.03,120.43l-26.05-12.72c-.77-.37-1.69-.02-2.01.76l-.28.67c-.32.79.08,1.69.89,1.96l27.45,9.32Z" fill="#46bed6"/>
  <path d="M94.01,112.61l-23.74-16.64c-.7-.49-1.66-.29-2.11.44l-.38.62c-.44.73-.18,1.68.57,2.07l25.65,13.5Z" fill="#46bed6"/>
  <path d="M99.15,105.5l-20.84-20.14c-.61-.59-1.6-.54-2.15.1l-.47.55c-.55.65-.44,1.63.24,2.14l23.22,17.35Z" fill="#46bed6"/>
  <path d="M105.34,99.29l-17.43-23.16c-.51-.68-1.49-.79-2.14-.23l-.55.47c-.65.55-.69,1.54-.1,2.15l20.22,20.77Z" fill="#46bed6"/>
  <path d="M112.43,94.12l-13.59-25.6c-.4-.75-1.35-1.01-2.08-.56l-.62.38c-.73.45-.92,1.41-.43,2.11l16.72,23.67Z" fill="#46bed6"/>
  <path d="M120.25,90.13l-9.42-27.41c-.28-.81-1.18-1.21-1.96-.88l-.67.28c-.79.33-1.13,1.25-.76,2.01l12.81,26Z" fill="#46bed6"/>
  <path d="M128.59,87.4l-5.02-28.54c-.15-.84-.97-1.38-1.8-1.18l-.71.17c-.83.2-1.32,1.06-1.06,1.87l8.59,27.68Z" fill="#46bed6"/>
  <path d="M137.25,86.01l-.49-28.98c-.01-.85-.74-1.51-1.59-1.45l-.72.06c-.85.07-1.46.84-1.34,1.68l4.15,28.68Z" fill="#46bed6"/>
</svg>